<?xml version="1.0" standalone="no"?>
<!DOCTYPE svg PUBLIC "-//W3C//DTD SVG 20010904//EN"
 "http://www.w3.org/TR/2001/REC-SVG-20010904/DTD/svg10.dtd">
<svg version="1.0" xmlns="http://www.w3.org/2000/svg"
 width="512.000000pt" height="512.000000pt" viewBox="0 0 512.000000 512.000000"
 preserveAspectRatio="xMidYMid meet">
<metadata>
Created by potrace 1.11, written by Peter Selinger 2001-2013
</metadata>
<g transform="translate(0.000000,512.000000) scale(0.100000,-0.100000)"
fill="#000000" stroke="none">
<path d="M2691 5096 c-20 -22 -23 -36 -26 -138 -8 -265 -24 -409 -67 -618 -66
-323 -200 -623 -418 -935 -72 -104 -272 -378 -280 -385 -25 -22 -254 -366
-324 -488 -26 -45 -51 -80 -54 -78 -4 2 -25 7 -47 10 -22 4 -47 8 -55 11 -76
22 -325 28 -445 11 -113 -17 -161 -30 -255 -68 -301 -122 -462 -339 -516 -693
-12 -84 -12 -312 1 -392 40 -245 140 -450 294 -603 209 -209 527 -329 855
-324 115 2 140 5 250 34 115 30 271 106 324 157 7 7 16 13 20 13 11 0 145 131
188 185 122 150 212 335 264 540 87 338 -61 684 -385 905 -123 83 -158 92
-199 51 -16 -17 -21 -17 -45 -5 -27 14 -84 38 -114 48 -10 3 -16 9 -14 13 117
208 244 400 452 683 310 422 433 625 533 880 33 83 81 231 88 270 3 14 11 50
19 80 16 67 42 207 50 275 3 28 8 64 10 82 3 17 7 76 11 130 3 54 8 100 10
103 3 2 30 -23 62 -57 31 -33 96 -102 145 -152 71 -75 86 -96 81 -115 -23 -93
-26 -386 -4 -511 59 -346 197 -613 438 -852 23 -23 42 -46 43 -50 0 -4 3 -19
5 -33 23 -127 37 -211 41 -240 2 -19 10 -80 18 -135 8 -55 17 -136 20 -180 3
-44 8 -87 10 -95 2 -8 6 -58 10 -110 3 -52 8 -130 11 -173 l5 -77 -33 -1 c-18
0 -46 -3 -63 -5 -316 -44 -535 -140 -708 -311 -156 -154 -229 -339 -228 -578
1 -60 3 -119 5 -130 2 -11 7 -42 10 -69 17 -123 62 -268 119 -384 158 -318
426 -516 782 -577 60 -11 308 -14 357 -5 24 5 61 10 83 13 63 9 221 64 294
102 185 98 343 262 438 455 96 197 133 347 138 565 4 167 -5 225 -57 359 -37
97 -66 129 -111 125 -28 -3 -40 5 -93 60 -56 56 -61 66 -60 103 1 34 -4 45
-31 67 -36 30 -174 101 -254 130 -108 40 -310 80 -401 81 -23 0 -38 5 -38 13
-4 99 -24 368 -35 457 -2 19 -6 58 -10 85 -3 28 -7 68 -10 90 -3 22 -12 89
-21 148 -8 60 -13 111 -11 113 2 3 31 -11 64 -30 190 -111 446 -188 603 -181
142 6 249 55 355 160 55 54 120 157 130 202 2 10 8 38 14 63 13 57 14 141 1
211 -5 30 -11 65 -14 79 -16 96 -74 258 -134 376 -249 491 -745 795 -1317 808
-77 2 -161 0 -187 -4 -43 -6 -75 1 -88 20 -3 4 -75 81 -160 170 -85 89 -173
181 -195 205 -66 71 -106 82 -144 41z"/>
</g>
</svg>
